<svg width="24" height="24" viewBox="0 0 24 24" fill="none" xmlns="http://www.w3.org/2000/svg">
<path fill-rule="evenodd" clip-rule="evenodd" d="M0.439941 11.9999C0.439941 18.3919 5.60794 23.5599 11.9999 23.5599C18.3919 23.5599 23.5599 18.3919 23.5599 11.9999C23.5599 5.60794 18.3919 0.439941 11.9999 0.439941C5.60794 0.439941 0.439941 5.60794 0.439941 11.9999ZM1.79994 11.9999C1.79994 6.35594 6.35594 1.79994 11.9999 1.79994C17.6439 1.79994 22.1999 6.35594 22.1999 11.9999C22.1999 17.6439 17.6439 22.1999 11.9999 22.1999C6.35594 22.1999 1.79994 17.6439 1.79994 11.9999ZM18.7999 12L8.59989 6.08398V17.916L18.7999 12ZM9.95989 15.536V8.39598L16.0799 11.932L9.95989 15.536Z" fill="#F9F9F9"/>
</svg>
